<?xml version="1.0" ?><!DOCTYPE svg  PUBLIC '-//W3C//DTD SVG 1.1//EN'  'http://www.w3.org/Graphics/SVG/1.1/DTD/svg11.dtd'><svg enable-background="new 0 0 512 512" height="512px" id="chair_1_" version="1.1" viewBox="0 0 512 512" width="512px" xml:space="preserve" xmlns="http://www.w3.org/2000/svg" xmlns:xlink="http://www.w3.org/1999/xlink"><path d="M394.059,263.13h-42.771L339.689,67.107c-0.576-9.705-8.641-17.307-18.361-17.307H185.2  c-9.664,0-17.726,7.555-18.354,17.198L154.082,263.13h-36.141c-5.767,0-10.459,4.691-10.459,10.459v37.405  c0,5.768,4.692,10.459,10.459,10.459h13.91v13.449c0,7.896,6.425,14.32,14.32,14.32h7.683v105.234c0,4.269,3.473,7.742,7.742,7.742  h10.02c4.269,0,7.741-3.474,7.741-7.742V349.223H325.99v105.234c0,4.269,3.473,7.742,7.742,7.742h10.02  c4.27,0,7.742-3.474,7.742-7.742V349.223h14.336c7.895,0,14.32-6.424,14.32-14.32v-13.449h13.908  c5.768,0,10.459-4.691,10.459-10.459v-37.405C404.518,267.821,399.826,263.13,394.059,263.13z M174.032,67.466  c0.381-5.869,5.288-10.465,11.168-10.465h136.128c5.916,0,10.824,4.626,11.172,10.532l11.574,195.597H161.296L174.032,67.466z   M172.157,454.457c0,0.299-0.242,0.542-0.541,0.542h-10.02c-0.299,0-0.542-0.243-0.542-0.542V349.223h11.103V454.457z   M344.293,454.457c0,0.299-0.242,0.542-0.541,0.542h-10.02c-0.299,0-0.541-0.243-0.541-0.542V349.223h11.102V454.457z   M372.949,334.902c0,3.927-3.195,7.121-7.119,7.121h-14.336H325.99H179.357h-25.503h-7.683c-3.925,0-7.12-3.194-7.12-7.121v-13.449  h233.898V334.902z M397.318,310.994c0,1.797-1.463,3.259-3.26,3.259H380.15H131.851h-13.91c-1.796,0-3.259-1.462-3.259-3.259  v-37.405c0-1.798,1.463-3.259,3.259-3.259h35.673h198.099h42.346c1.797,0,3.26,1.461,3.26,3.259V310.994z" id="chair"/></svg>