<?xml version="1.0" ?><svg data-name="Layer 1" id="Layer_1" viewBox="0 0 512 512" xmlns="http://www.w3.org/2000/svg"><path d="M256,303A46.95,46.95,0,1,0,209.05,256,47,47,0,0,0,256,303Zm0-83.6A36.65,36.65,0,1,1,219.35,256,36.7,36.7,0,0,1,256,219.35Z"/><path d="M163.89,274.23l20.45,2.26A71.23,71.23,0,0,0,190.75,292l-13,16.24a5.13,5.13,0,0,0,.38,6.85l18.55,18.55a5.15,5.15,0,0,0,6.86.38l16.17-12.93a74.24,74.24,0,0,0,15.75,6.55l2.28,20.47a5.15,5.15,0,0,0,5.12,4.58h26.24a5.16,5.16,0,0,0,5.12-4.58l2.27-20.47a73.67,73.67,0,0,0,16.06-6.72l15.87,12.7a5.15,5.15,0,0,0,6.86-.39l18.54-18.54a5.15,5.15,0,0,0,.39-6.86l-12.86-16.07a74.07,74.07,0,0,0,6.44-15.84l20.3-2.26a5.15,5.15,0,0,0,4.58-5.12V242.31a5.15,5.15,0,0,0-4.58-5.12l-20.64-2.27a73.38,73.38,0,0,0-6.4-15.22l12.75-15.94a5.14,5.14,0,0,0-.38-6.85l-18.55-18.55A5.15,5.15,0,0,0,308,178l-15.92,12.74a79,79,0,0,0-15.6-6.35l-2.27-20.48a5.16,5.16,0,0,0-5.12-4.58H242.88a5.15,5.15,0,0,0-5.12,4.58l-2.28,20.47a74.32,74.32,0,0,0-15.74,6.56L203.56,178a5.15,5.15,0,0,0-6.86.38l-18.55,18.55a5.13,5.13,0,0,0-.38,6.85l13,16.24a71.86,71.86,0,0,0-6.41,15.49l-20.45,2.28a5.14,5.14,0,0,0-4.58,5.12v26.22A5.14,5.14,0,0,0,163.89,274.23Zm5.72-26.74,17.9-2,1.83-.31a5.17,5.17,0,0,0,4.16-3.93,62.08,62.08,0,0,1,7.86-19,5.15,5.15,0,0,0-.31-5.87L188.7,200.93l12-12,13.71,11,1.49,1.28a5.17,5.17,0,0,0,6.31.3l.36-.27a63.58,63.58,0,0,1,19-7.74,5.15,5.15,0,0,0,4-5l1.92-18.8h17l1.93,17.33v1.49a5.15,5.15,0,0,0,4,5,67.45,67.45,0,0,1,19.55,8,5.17,5.17,0,0,0,6.17-.6l14.72-11.89,12,12-11.07,13.84a.86.86,0,0,0-.07.1l-1.08,1.41a5.36,5.36,0,0,0-.87,3.94,5.26,5.26,0,0,0,1.05,2.41A64,64,0,0,1,318.44,241a5.14,5.14,0,0,0,4.93,4h1.41l17.61,2v17L323.18,266a5.12,5.12,0,0,0-4.52,4,63.79,63.79,0,0,1-8,19.65,5.17,5.17,0,0,0,.78,6.4l11.87,14.56-12,12L297.84,312l-.63-.75a5.14,5.14,0,0,0-6.72-1,63.84,63.84,0,0,1-20.06,8.41,5.15,5.15,0,0,0-4,5l-1.93,18.8h-17l-1.92-17.33v-1.47a5.16,5.16,0,0,0-4-5l-.56-.13a63.71,63.71,0,0,1-19-8,5.16,5.16,0,0,0-6,.39L200.72,323.1l-12-12,11.12-13.91,1.24-1.6a5.16,5.16,0,0,0,.29-5.85,61.79,61.79,0,0,1-7.83-18.91,5.17,5.17,0,0,0-4-3.9l-19.89-2.4Z"/><path d="M390,116.89H122a5.14,5.14,0,0,0-5.15,5.15V390a5.14,5.14,0,0,0,5.15,5.15H390a5.14,5.14,0,0,0,5.15-5.15V122A5.14,5.14,0,0,0,390,116.89Zm-5.15,267.92H127.19V127.19H384.81Z"/><path d="M485,231.5a5.15,5.15,0,1,0,0-10.3H436.19v-49H485a5.15,5.15,0,1,0,0-10.3H436.19V120.84a45.08,45.08,0,0,0-45-45H350.1V27a5.15,5.15,0,1,0-10.3,0V75.81h-49V27a5.15,5.15,0,1,0-10.3,0V75.81h-49V27a5.15,5.15,0,1,0-10.3,0V75.81h-49V27a5.15,5.15,0,1,0-10.3,0V75.81H120.84a45.08,45.08,0,0,0-45,45V161.9H27a5.15,5.15,0,0,0,0,10.3H75.81v49H27a5.15,5.15,0,1,0,0,10.3H75.81v49H27a5.15,5.15,0,1,0,0,10.3H75.81v49H27a5.15,5.15,0,1,0,0,10.3H75.81v41.06a45.08,45.08,0,0,0,45,45H161.9V485a5.15,5.15,0,1,0,10.3,0V436.19h49V485a5.15,5.15,0,1,0,10.3,0V436.19h49V485a5.15,5.15,0,1,0,10.3,0V436.19h49V485a5.15,5.15,0,1,0,10.3,0V436.19h41.06a45.08,45.08,0,0,0,45-45V350.1H485a5.15,5.15,0,1,0,0-10.3H436.19v-49H485a5.15,5.15,0,1,0,0-10.3H436.19v-49ZM425.89,391.16a34.77,34.77,0,0,1-34.73,34.73H120.84a34.77,34.77,0,0,1-34.73-34.73V120.84a34.77,34.77,0,0,1,34.73-34.73H391.16a34.77,34.77,0,0,1,34.73,34.73Z"/></svg>