<?xml version="1.0" ?><svg data-name="Layer 1" id="Layer_1" viewBox="0 0 73.84229 70.80615" xmlns="http://www.w3.org/2000/svg"><defs><style>.cls-1{fill:none;}</style></defs><title/><path class="cls-1" d="M33.186,81.16553a.50491.50491,0,0,0-.44483.36963l-.50586,2.727.08008.09619H68.50537l.81787-.23291-.7373.13672-.50635-2.727a.50491.50491,0,0,0-.44482-.36963H33.186Z" transform="translate(-13.48926 -15.05225)"/><path class="cls-1" d="M85.83154,58.5V20.78369a4.23651,4.23651,0,0,0-4.23144-4.23144H19.2207a4.23651,4.23651,0,0,0-4.23144,4.23144V58.5Z" transform="translate(-13.48926 -15.05225)"/><circle class="cls-1" cx="36.92139" cy="48.04932" r="0.65625"/><polygon class="cls-1" points="28.262 64.613 45.58 64.613 42.758 52.651 31.084 52.651 28.262 64.613"/><path class="cls-1" d="M14.98926,60v1.97217a4.23609,4.23609,0,0,0,4.23144,4.231H81.6001a4.23609,4.23609,0,0,0,4.23144-4.23095V60Zm35.42138,4.75781a1.65625,1.65625,0,1,1,1.65625-1.65625A1.65835,1.65835,0,0,1,50.41064,64.75781Z" transform="translate(-13.48926 -15.05225)"/><path d="M81.6001,15.05225H19.2207a5.73816,5.73816,0,0,0-5.73144,5.73144V61.97217a5.73774,5.73774,0,0,0,5.73144,5.731H43.03186l-2.822,11.96241H33.186a2.00213,2.00213,0,0,0-1.91944,1.59619l-.50586,2.72656a1.55176,1.55176,0,0,0,1.55469,1.87012H68.50537a1.55174,1.55174,0,0,0,1.55518-1.86963l-.50635-2.72705a2.00213,2.00213,0,0,0-1.91943-1.59619H60.61053L57.78888,67.70312H81.6001a5.73774,5.73774,0,0,0,5.73144-5.73095V20.78369A5.73816,5.73816,0,0,0,81.6001,15.05225Zm-62.3794,1.5H81.6001a4.23651,4.23651,0,0,1,4.23144,4.23144V58.5H14.98926V20.78369A4.23651,4.23651,0,0,1,19.2207,16.55225ZM67.63477,81.16553a.50491.50491,0,0,1,.44482.36963l.50635,2.727.7373-.13672-.81787.23291H32.31543l-.08008-.09619.50586-2.727a.50491.50491,0,0,1,.44483-.36963H67.63477Zm-8.56543-1.5H41.75146l2.82178-11.96241H56.24756ZM81.6001,66.20312H19.2207a4.23609,4.23609,0,0,1-4.23144-4.23095V60H85.83154v1.97217A4.23609,4.23609,0,0,1,81.6001,66.20312Z" transform="translate(-13.48926 -15.05225)"/><path d="M50.41064,61.44531a1.65625,1.65625,0,1,0,1.65625,1.65625A1.65836,1.65836,0,0,0,50.41064,61.44531Zm0,2.3125a.65625.65625,0,1,1,.65625-.65625A.657.657,0,0,1,50.41064,63.75781Z" transform="translate(-13.48926 -15.05225)"/></svg>