<?xml version="1.0" ?><svg data-name="Layer 1" id="Layer_1" viewBox="0 0 512 512" xmlns="http://www.w3.org/2000/svg"><path d="M502.17,256.7,383.53,85.41a5.1,5.1,0,0,0-4.19-2.19H132.59a5,5,0,0,0-3.29,1.25,4.78,4.78,0,0,0-.45.45h0a5.56,5.56,0,0,0-.42.54L31.29,225.72v0l-21.45,31a5.1,5.1,0,1,0,8.39,5.81l12.19-17.6V423.68a5.1,5.1,0,0,0,5.1,5.1H476a5.1,5.1,0,0,0,5.1-5.1v-159H498a5.11,5.11,0,0,0,4.19-8ZM103.76,418.58V284.89h54.91V418.58Zm65.11,0V279.79a5.1,5.1,0,0,0-5.1-5.1H98.66a5.1,5.1,0,0,0-5.1,5.1V418.58H40.61V230.18l92-132.91L221.82,226V418.58Zm302,0H232V240.76l15.07,21.75a5.09,5.09,0,0,0,4.19,2.2H470.91ZM254,254.51,142.39,93.42H376.67L488.24,254.51Z"/><path d="M280.22,375.74H328a5.1,5.1,0,0,0,5.1-5.1V322.9a5.1,5.1,0,0,0-5.1-5.1H280.22a5.1,5.1,0,0,0-5.1,5.1v47.74A5.1,5.1,0,0,0,280.22,375.74Zm5.1-47.74h37.54v37.54H285.32Z"/><path d="M373.53,375.74h47.74a5.1,5.1,0,0,0,5.1-5.1V322.9a5.1,5.1,0,0,0-5.1-5.1H373.53a5.1,5.1,0,0,0-5.1,5.1v47.74A5.1,5.1,0,0,0,373.53,375.74Zm5.1-47.74h37.54v37.54H378.63Z"/></svg>