<svg width="446" height="109" viewBox="0 0 446 109" fill="none" xmlns="http://www.w3.org/2000/svg">
<path fill-rule="evenodd" clip-rule="evenodd" d="M383.548 108.989C383.48 108.876 384.236 108.36 385.678 107.377C387.651 106.031 390.908 103.809 395.095 100.544C395.227 100.439 395.361 100.333 395.495 100.226C394.373 100.861 393.295 101.446 392.268 101.986C391.232 102.517 390.254 103.018 389.335 103.489C388.395 103.915 387.515 104.312 386.699 104.682C385.068 105.423 383.674 106.013 382.515 106.412C380.218 107.256 378.988 107.629 378.932 107.487C378.861 107.32 379.863 106.799 381.763 105.813C383.919 104.694 387.229 102.976 391.435 100.494C395.364 98.1285 400.096 95.0882 405.16 91.0071C406.298 90.1006 407.454 89.1442 408.623 88.1362C412.787 83.6859 417.113 78.3585 421.166 72.0677C423.415 68.6576 425.517 64.9239 427.489 60.9352C428.589 58.7264 429.622 56.4234 430.572 54.0341C430.387 54.4525 430.198 54.8678 430.007 55.2799C428.144 59.2936 426.031 63.0154 423.752 66.4229C421.485 69.8357 419.13 72.9909 416.676 75.8279C411.83 81.5546 406.819 86.1679 402.149 89.8435C397.493 93.5482 393.139 96.2715 389.515 98.3425L386.933 99.7834C386.105 100.197 385.329 100.582 384.61 100.942C383.651 101.424 382.785 101.844 382.01 102.191C382.752 102.549 383.125 102.755 383.103 102.817C383.077 102.887 382.518 102.762 381.47 102.427C381.282 102.508 381.1 102.583 380.923 102.653C378.897 103.503 377.822 103.917 377.793 103.847C377.763 103.777 378.779 103.228 380.733 102.248L380.811 102.211C380.429 102.082 380.001 101.933 379.529 101.763C377.236 100.936 373.888 99.6223 369.661 97.727C365.44 95.8238 360.324 93.3633 354.592 90.1011C348.881 86.8124 342.483 82.7987 336.098 77.3837C332.928 74.659 329.749 71.5936 326.872 67.9774C324.017 64.3692 321.429 60.1494 320.027 55.235C318.597 50.3509 318.612 44.7707 320.378 39.6119C320.458 39.3892 320.528 39.1613 320.598 38.9331C320.728 38.5066 320.859 38.0791 321.058 37.6824L321.935 35.8294C322.494 34.5813 323.161 33.3437 323.979 32.1894C324.255 31.7898 324.543 31.396 324.844 31.0092C325.023 30.6062 325.212 30.2069 325.413 29.8121C325.888 28.6825 326.557 27.6734 327.232 26.6571C327.328 26.5125 327.424 26.3677 327.519 26.2223C328.251 25.0429 329.117 23.8939 330.101 22.8399C332.052 20.7413 334.382 18.8553 336.998 17.5306C342.065 14.7557 348.136 13.184 354.305 13.6727C360.435 14.2802 366.526 16.7249 371.369 20.8139C373.889 22.7514 375.96 25.1988 377.938 27.7068L379.27 29.7051C379.718 30.3708 380.165 31.0391 380.523 31.7589L381.095 32.8207L381.171 32.9636L381.172 32.962C381.31 32.3505 381.512 31.7529 381.714 31.1551C381.747 31.0569 381.78 30.9588 381.813 30.8607C381.833 30.8 381.853 30.7393 381.873 30.6785C382.054 30.1506 382.229 29.62 382.404 29.0888C382.73 28.0997 383.057 27.108 383.427 26.1286C385.723 20.1192 388.852 14.3938 393.14 9.61276C397.394 4.83432 403.233 1.33041 409.528 0.314784C410.05 0.172695 410.586 0.152126 411.121 0.131618L411.123 0.131526C411.378 0.12173 411.633 0.111965 411.887 0.0889239C412.158 0.082088 412.43 0.0639605 412.702 0.0458331C413.218 0.0113787 413.734 -0.0230146 414.244 0.0202594L416.578 0.231563C416.641 0.238918 416.705 0.245296 416.768 0.251186C416.842 0.258052 416.916 0.264217 416.991 0.270381C417.241 0.291164 417.492 0.312038 417.736 0.359676L418.866 0.618526L421.113 1.14288C421.594 1.28332 422.062 1.46072 422.528 1.63775C422.773 1.73046 423.017 1.82305 423.262 1.91021C423.508 2.00875 423.758 2.09872 424.008 2.18859C424.472 2.35525 424.935 2.52185 425.37 2.74227L427.368 3.76452C427.949 4.03591 428.534 4.36328 429.108 4.72808C431.861 5.6831 434.451 7.01718 436.768 8.65786C438.039 9.44766 439.27 10.5346 440.378 11.6863L441.878 13.5406L443.096 15.5521C444.543 18.3151 445.309 21.263 445.709 24.1554C446.378 29.968 445.641 35.5599 444.287 40.7174C442.941 45.8907 441.016 50.6929 438.82 55.1425C436.625 59.5947 434.148 63.6982 431.504 67.4452C428.874 71.2013 426.141 74.6564 423.318 77.7548C417.728 84.0072 411.992 89.0062 406.658 92.9538C406.201 93.296 405.746 93.6301 405.295 93.9563C401.891 97.0373 398.677 99.5316 395.869 101.569L394.581 102.482C394.102 102.822 393.638 103.151 393.19 103.47L392.187 104.112C391.692 104.43 391.217 104.734 390.763 105.025C389.263 105.992 387.975 106.779 386.89 107.345C384.751 108.521 383.604 109.088 383.548 108.989ZM423.966 72.0836C425.585 70.0156 427.164 67.8269 428.704 65.5327C431.189 61.8571 433.508 57.854 435.542 53.551C437.576 49.2533 439.341 44.6466 440.539 39.7757C441.755 34.922 442.331 29.7474 441.694 24.6837C441.319 22.1756 440.636 19.7098 439.462 17.5121L438.489 15.9285L437.312 14.5034C437.082 14.2734 436.849 14.0467 436.609 13.8242C437.144 15.0839 437.574 16.371 437.928 17.6587C439.349 23.2295 439.354 28.8044 438.72 34.049C438.093 39.3082 436.849 44.29 435.291 48.9654C433.732 53.6421 431.858 58.023 429.764 62.075C427.936 65.6387 426.007 68.9903 423.966 72.0836ZM415.392 3.31164C413.614 3.15139 411.817 3.19949 410.031 3.50433C404.578 4.42227 399.459 7.44277 395.568 11.8197C394.261 13.2815 393.06 14.8552 391.958 16.5171C394.619 13.5858 397.603 10.9672 400.915 8.82296C405.288 5.98376 410.264 3.99859 415.392 3.31164ZM430.501 9.86868C430.965 10.359 431.399 10.8833 431.805 11.4433C433.285 13.5446 434.292 15.9615 434.994 18.4445C436.32 23.4646 436.404 28.7198 435.84 33.7241C435.822 33.8892 435.803 34.0541 435.784 34.2188C435.895 32.0811 435.829 29.9026 435.527 27.7029C435.136 25.1843 434.432 22.6379 433.161 20.2764C431.895 17.9361 429.895 15.8453 427.651 14.4229C423.303 11.4486 417.925 9.28656 412.255 9.56521C410.374 9.652 408.508 9.9869 406.699 10.5355C410.649 8.55935 414.914 7.40365 419.168 7.35165C423.133 7.32312 427.01 8.22634 430.501 9.86868ZM367.397 23.1455C363.399 20.1347 358.667 18.3772 353.939 17.8555C348.671 17.4104 343.447 18.6862 338.923 21.0966C338.431 21.3372 337.955 21.5984 337.493 21.878C345.631 18.6089 355.285 18.2506 363.998 21.6777C365.027 22.0684 366.044 22.5054 367.045 22.9883C367.112 23.0156 367.179 23.0431 367.246 23.0711L367.397 23.1455ZM322.575 42.331C321.503 46.4098 321.585 50.6231 322.658 54.4954C323.868 58.9581 326.211 62.9428 328.88 66.415C331.565 69.8964 334.588 72.9143 337.624 75.6218C343.746 81.0078 349.968 85.1113 355.524 88.5109C359.986 91.2107 364.073 93.4201 367.633 95.2551C367.285 95.0453 366.931 94.8299 366.57 94.6087C362.618 92.1693 357.854 89.0537 352.584 85.0492C347.338 81.0236 341.509 76.1752 335.87 69.9189C333.078 66.7742 330.321 63.2848 327.938 59.2724C325.577 55.2706 323.562 50.6811 322.84 45.5289C322.686 44.4813 322.597 43.4118 322.575 42.331ZM378.381 100.498C378.758 100.674 379.114 100.839 379.449 100.994L379.781 101.148C380.415 101.441 380.963 101.695 381.421 101.91C382.259 101.487 383.221 100.963 384.307 100.357L386.566 99.1164C387.353 98.6423 388.19 98.1364 389.078 97.6002C392.607 95.4329 396.848 92.6329 401.375 88.8807C405.918 85.1576 410.787 80.5257 415.482 74.8228C417.86 71.999 420.139 68.8663 422.328 65.4905C424.529 62.1213 426.563 58.451 428.348 54.5125C430.131 50.5767 431.665 46.3596 432.684 41.8942C433.715 37.4433 434.197 32.694 433.522 27.9948C433.145 25.665 432.486 23.355 431.354 21.2722C430.186 19.1868 428.568 17.4843 426.466 16.1517C422.373 13.3808 417.446 11.4433 412.342 11.7114C407.264 11.9703 402.281 14.1957 398.295 17.7525C394.295 21.3079 391.061 25.8539 388.497 30.8014C388.408 30.9856 388.318 31.1697 388.229 31.3537L388.209 31.3949C387.09 33.708 385.975 36.0128 385.121 38.4207L383.324 43.0855L383.231 43.3298C383.223 43.3459 383.214 43.3692 383.206 43.3925C383.183 43.4593 383.16 43.5261 383.134 43.4223L382.935 42.9878L382.429 41.889L381.543 43.9994L381.493 44.1183C381.477 44.1685 381.46 44.2068 381.44 44.1315L381.324 43.87L379.939 40.7386L379.781 40.3774C379.217 39.0903 378.655 37.8055 378.092 36.5241C378.078 36.4869 378.063 36.4502 378.048 36.4138L378.04 36.4012L376.684 34.6671C373.068 30.0604 368.131 26.7282 362.852 24.6956C359.356 23.3068 355.699 22.5824 352.066 22.4553C347.579 22.7323 343.245 23.9976 339.549 26.1748C335.494 28.6023 332.245 32.1406 330.359 36.1899C328.425 40.238 327.884 44.6942 328.547 48.8505C329.19 53.024 330.894 56.8661 332.946 60.2709C335.012 63.6851 337.43 66.7042 339.893 69.4368C342.357 72.176 344.902 74.6141 347.4 76.8158C349.885 79.0359 352.339 81.0091 354.671 82.804C359.344 86.3858 363.552 89.2386 367.044 91.4839C370.536 93.7318 373.307 95.388 375.186 96.5066L375.669 96.7937C377.237 97.7251 378.058 98.2126 378.027 98.2751C377.993 98.3425 376.929 97.8908 374.972 96.895C373.017 95.8978 370.167 94.3565 366.591 92.2103C365.542 91.5816 364.431 90.8999 363.265 90.1616C364.767 91.252 366.186 92.2545 367.506 93.1771C370.88 95.5161 373.624 97.3303 375.617 98.6476C376.822 99.4442 377.752 100.059 378.381 100.498ZM326.424 44.8047C325.908 40.3778 326.677 35.7449 328.865 31.5515C329.039 31.1411 329.249 30.7468 329.479 30.3611C330.184 29.7051 330.937 29.0942 331.74 28.5389C333.326 27.3772 335.044 26.3668 336.859 25.5204C333.255 28.0901 330.37 31.5164 328.608 35.3658C327.193 38.3726 326.486 41.6224 326.424 44.8047Z" fill="#ED721A"/>
<path d="M379.449 100.994C379.114 100.839 378.758 100.674 378.381 100.498C377.752 100.059 376.822 99.4442 375.617 98.6476C373.624 97.3303 370.88 95.5161 367.506 93.1771C366.186 92.2545 364.767 91.252 363.265 90.1616C364.431 90.8999 365.542 91.5816 366.591 92.2103C370.167 94.3565 373.017 95.8978 374.972 96.895C376.929 97.8908 377.993 98.3425 378.027 98.2751C378.058 98.2126 377.237 97.7251 375.669 96.7937L375.186 96.5066C373.307 95.388 370.536 93.7318 367.044 91.4839C363.552 89.2386 359.344 86.3858 354.671 82.804C352.339 81.0091 349.885 79.0359 347.4 76.8158C344.902 74.6141 342.357 72.176 339.893 69.4368C337.43 66.7042 335.012 63.6851 332.946 60.2709C330.894 56.8661 329.19 53.024 328.547 48.8505C327.884 44.6942 328.425 40.238 330.359 36.1899C332.245 32.1406 335.494 28.6023 339.549 26.1748C343.245 23.9976 347.579 22.7323 352.066 22.4553C355.699 22.5824 359.356 23.3068 362.852 24.6956C368.131 26.7282 373.068 30.0604 376.684 34.6671L378.04 36.4012L378.048 36.4138C378.063 36.4502 378.078 36.4869 378.092 36.5241C378.655 37.8055 379.217 39.0903 379.781 40.3774L379.939 40.7386L381.324 43.87L381.44 44.1315C381.46 44.2068 381.477 44.1685 381.493 44.1183L381.543 43.9994L382.429 41.889L382.935 42.9878L383.134 43.4223C383.16 43.5261 383.183 43.4593 383.206 43.3925C383.214 43.3692 383.223 43.3459 383.231 43.3298L383.324 43.0855L385.121 38.4207C385.975 36.0128 387.09 33.708 388.209 31.3949L388.229 31.3537C388.318 31.1697 388.408 30.9856 388.497 30.8014C391.061 25.8539 394.295 21.3079 398.295 17.7525C402.281 14.1957 407.264 11.9703 412.342 11.7114C417.446 11.4433 422.373 13.3808 426.466 16.1517C428.568 17.4843 430.186 19.1868 431.354 21.2722C432.486 23.355 433.145 25.665 433.522 27.9948C434.197 32.694 433.715 37.4433 432.684 41.8942C431.665 46.3596 430.131 50.5767 428.348 54.5125C426.563 58.451 424.529 62.1213 422.328 65.4905C420.139 68.8663 417.86 71.999 415.482 74.8228C410.787 80.5257 405.918 85.1576 401.375 88.8807C396.848 92.6329 392.607 95.4329 389.078 97.6002C388.19 98.1364 387.353 98.6423 386.566 99.1164L384.307 100.357C383.221 100.963 382.259 101.487 381.421 101.91C380.963 101.695 380.415 101.441 379.781 101.148L379.449 100.994Z" fill="#ED721A"/>
<path d="M367.175 105.003L360.37 105.409C355.157 105.409 351.974 103.683 350.823 100.229H350.315C348.081 103.683 344.661 105.409 340.057 105.409C333.963 105.409 329.663 103.277 327.158 99.0107C324.72 94.7448 323.501 88.4138 323.501 80.0175C323.501 71.5535 324.889 65.1886 327.666 60.9227C330.442 56.6569 334.437 54.524 339.651 54.524C343.239 54.524 346.015 55.3704 347.979 57.0632V39.2888H364.941V89.4633C364.941 90.7498 365.212 91.6301 365.753 92.1041C366.295 92.5103 367.277 92.7135 368.699 92.7135L367.175 105.003ZM344.119 68.845C342.698 68.845 341.75 69.7253 341.276 71.4858C340.802 73.1786 340.565 75.6501 340.565 78.9002C340.565 82.0827 340.598 84.2495 340.666 85.4006C340.734 86.5517 340.869 87.7366 341.072 88.9554C341.343 90.1065 341.716 90.9191 342.19 91.3931C342.731 91.7993 343.578 92.0025 344.729 92.0025C345.948 92.0025 347.2 91.6978 348.487 91.0884V70.0638C347.065 69.2513 345.609 68.845 344.119 68.845Z" fill="white"/>
<path d="M299.492 69.0482C297.732 69.0482 296.581 69.6576 296.039 70.8764C295.497 72.0275 295.226 73.8219 295.226 76.2595H304.063V73.8219C304.063 70.6394 302.539 69.0482 299.492 69.0482ZM299.899 54.524C306.873 54.524 311.85 56.2168 314.829 59.6024C317.876 62.9202 319.4 67.6939 319.4 73.9234C319.4 74.736 319.163 78.3924 318.689 84.8927H295.531C295.531 89.9711 297.867 92.5103 302.539 92.5103C304.774 92.5103 309.141 91.7316 315.642 90.1743L317.064 102.769C311.376 104.529 305.688 105.409 300 105.409C293.026 105.409 287.677 103.141 283.952 98.6044C280.228 94 278.366 87.7705 278.366 79.9159C278.366 62.988 285.544 54.524 299.899 54.524Z" fill="white"/>
<path d="M276.09 55.7428L265.731 104.394H241.761L231.299 55.7428H249.175L253.542 86.9241H254.863L259.535 55.7428H276.09Z" fill="white"/>
<path d="M187.015 79.9159C187.015 70.978 188.707 64.5115 192.093 60.5165C195.546 56.5215 200.896 54.524 208.141 54.524C215.454 54.524 220.769 56.4876 224.087 60.4149C227.405 64.3422 229.064 70.8087 229.064 79.8144C229.064 88.7523 227.439 95.2526 224.188 99.3154C220.938 103.378 215.623 105.409 208.242 105.409C200.862 105.409 195.479 103.378 192.093 99.3154C188.707 95.2526 187.015 88.7862 187.015 79.9159ZM211.391 70.267C210.985 68.9127 209.901 68.2356 208.141 68.2356C206.38 68.2356 205.263 68.9127 204.789 70.267C204.315 71.6212 204.078 74.4651 204.078 78.7987V81.2363C204.078 86.0438 204.315 89.1586 204.789 90.5805C205.263 92.0025 206.346 92.7135 208.039 92.7135C209.8 92.7135 210.917 92.0025 211.391 90.5805C211.865 89.1586 212.102 86.247 212.102 81.8457V78.9002C212.102 74.499 211.865 71.6212 211.391 70.267Z" fill="white"/>
<path d="M184.546 104.394H152.451V41.3202H169.819V90.2758H185.562L184.546 104.394Z" fill="white"/>
<path d="M126.411 69.0482C124.65 69.0482 123.499 69.6576 122.957 70.8764C122.416 72.0275 122.145 73.8219 122.145 76.2595H130.981V73.8219C130.981 70.6394 129.458 69.0482 126.411 69.0482ZM126.817 54.524C133.791 54.524 138.768 56.2168 141.747 59.6024C144.794 62.9202 146.318 67.6939 146.318 73.9234C146.318 74.736 146.081 78.3924 145.607 84.8927H122.449C122.449 89.9711 124.785 92.5103 129.458 92.5103C131.692 92.5103 136.059 91.7316 142.56 90.1743L143.982 102.769C138.294 104.529 132.606 105.409 126.918 105.409C119.944 105.409 114.595 103.141 110.871 98.6044C107.147 94 105.284 87.7705 105.284 79.9159C105.284 62.988 112.462 54.524 126.817 54.524Z" fill="white"/>
<path d="M103.009 55.7428L92.6489 104.394H68.6789L58.2174 55.7428H76.0933L80.4607 86.9241H81.7811L86.4532 55.7428H103.009Z" fill="white"/>
<path d="M54.8228 104.394H38.0641V56.2506H54.8228V104.394ZM39.3845 52.3911C37.9626 51.1722 37.2516 49.2086 37.2516 46.5001C37.2516 43.7917 37.9626 41.7942 39.3845 40.5076C40.8065 39.2211 43.1425 38.5779 46.3927 38.5779C49.6429 38.5779 51.9789 39.2211 53.4009 40.5076C54.8228 41.7942 55.5338 43.7917 55.5338 46.5001C55.5338 49.1409 54.8228 51.1045 53.4009 52.3911C51.9789 53.6099 49.6429 54.2193 46.3927 54.2193C43.1425 54.2193 40.8065 53.6099 39.3845 52.3911Z" fill="white"/>
<path d="M34.1268 56.86H17.3681V66.3058H30.8766V79.7128H17.3681V104.394H0V41.3202H35.1424L34.1268 56.86Z" fill="white"/>
</svg>
