<svg width="58" height="61" viewBox="0 0 58 61" fill="none" xmlns="http://www.w3.org/2000/svg">
<path d="M10.0201 50.1125C10.5255 50.6657 11.0642 51.1875 11.6332 51.6749C15.2688 54.7612 19.932 56.3675 24.697 56.1749C27.4238 56.0894 30.1018 55.4297 32.5563 54.2389C35.0108 53.0482 37.1866 51.3531 38.9416 49.2644L39.173 48.9886C39.6017 48.4586 39.8836 47.8251 39.9903 47.1518C40.0971 46.4784 40.0251 45.7889 39.7814 45.1521C39.5446 44.5044 39.1419 43.9302 38.6135 43.4869C38.0852 43.0436 37.4498 42.7467 36.7708 42.626C35.733 42.4471 34.6965 42.2822 33.7035 42.1278C29.9129 41.5579 26.376 40.9659 24.8975 39.7253C23.1739 38.2791 22.5661 36.2809 21.9726 34.2034C21.3792 32.1259 20.6551 29.6907 18.5791 27.9488C16.9608 26.7042 15.247 25.5892 13.4536 24.6139C12.6138 24.1173 11.619 23.9518 10.6637 24.1496C9.70832 24.3473 8.86105 24.8943 8.28745 25.6834L8.15246 25.8443C5.64056 29.4927 4.4557 33.8921 4.79559 38.3086C5.13548 42.725 6.97955 46.8914 10.0201 50.1125ZM12.6631 25.8826C14.3913 26.8293 16.0446 27.9067 17.6085 29.1055C19.3398 30.5582 19.9399 32.5499 20.5269 34.6351C21.1139 36.7203 21.8509 39.1401 23.9269 40.8821C25.7271 42.3926 29.3115 42.9592 33.4384 43.6415L36.484 44.1346C36.9058 44.209 37.3006 44.3931 37.6287 44.6684C37.9568 44.9437 38.2067 45.3005 38.3532 45.703C38.5042 46.097 38.5491 46.5237 38.4834 46.9405C38.4177 47.3573 38.2438 47.7496 37.9789 48.0781L37.7668 48.3309C36.1427 50.2563 34.1308 51.8175 31.8623 52.9124C29.5939 54.0074 27.12 54.6116 24.6022 54.6855C22.0723 54.7652 19.5544 54.3059 17.2155 53.3382C14.8767 52.3705 12.7704 50.9164 11.0364 49.0724C8.22831 46.1083 6.52129 42.271 6.20005 38.2006C5.87881 34.1301 6.96277 30.0726 9.27116 26.7047L9.38686 26.5668C9.74282 26.0566 10.2802 25.7016 10.8892 25.5744C11.4982 25.4473 12.1327 25.5575 12.6631 25.8826Z" fill="black"/>
<path d="M18.7007 18.1428C18.7912 18.2203 18.899 18.2748 19.015 18.3018C19.1311 18.3287 19.2519 18.3272 19.3673 18.2974C22.3097 17.5457 25.3886 17.5031 28.3507 18.1732C31.3129 18.8432 34.0737 20.2067 36.4062 22.1515C36.5572 22.2276 36.7293 22.2504 36.8949 22.2163C37.0604 22.1823 37.2096 22.0933 37.3182 21.9638C37.4268 21.8344 37.4886 21.672 37.4934 21.5031C37.4982 21.3341 37.4458 21.1685 37.3447 21.0331C34.8365 18.9331 31.8653 17.4591 28.6759 16.7324C25.4864 16.0056 22.1699 16.047 18.9996 16.8532C18.903 16.8759 18.8119 16.9178 18.7319 16.9765C18.6518 17.0351 18.5844 17.1093 18.5336 17.1945C18.4828 17.2798 18.4496 17.3743 18.4361 17.4727C18.4226 17.571 18.429 17.671 18.4549 17.7668C18.4926 17.916 18.5791 18.0484 18.7007 18.1428Z" fill="black"/>
<path d="M28.9833 48.3753C29.2863 48.6296 29.6579 48.7883 30.0511 48.8314C30.4443 48.8744 30.8415 48.7999 31.1923 48.6173C31.5432 48.4346 31.832 48.152 32.0223 47.8052C32.2125 47.4584 32.2957 47.063 32.2612 46.6689C32.2267 46.2749 32.0762 45.8999 31.8286 45.5914C31.581 45.2829 31.2475 45.0548 30.8702 44.9358C30.493 44.8169 30.0889 44.8125 29.7092 44.9232C29.3294 45.0339 28.991 45.2547 28.7367 45.5577C28.3958 45.964 28.2302 46.4892 28.2764 47.0176C28.3227 47.546 28.5769 48.0344 28.9833 48.3753ZM30.5838 46.4679C30.6614 46.5305 30.7186 46.6149 30.7479 46.7102C30.7773 46.8055 30.7774 46.9074 30.7484 47.0028C30.7193 47.0982 30.6624 47.1828 30.5849 47.2456C30.5075 47.3084 30.413 47.3466 30.3136 47.3553C30.2143 47.364 30.1146 47.3428 30.0274 47.2944C29.9402 47.246 29.8694 47.1726 29.8243 47.0837C29.7791 46.9948 29.7616 46.8944 29.7739 46.7954C29.7862 46.6964 29.8279 46.6034 29.8935 46.5283C29.9348 46.479 29.9855 46.4383 30.0426 46.4086C30.0996 46.3789 30.162 46.3607 30.2261 46.3551C30.2902 46.3495 30.3548 46.3566 30.4162 46.3759C30.4775 46.3953 30.5345 46.4265 30.5838 46.4679Z" fill="black"/>
<path d="M28.3175 30.6245C27.9036 31.1148 27.6445 31.7169 27.5732 32.3546C27.5018 32.9923 27.6214 33.6368 27.9169 34.2064C28.2123 34.776 28.6702 35.2451 29.2325 35.5542C29.7948 35.8632 30.4362 35.9984 31.0755 35.9425C31.7147 35.8865 32.3229 35.6421 32.823 35.24C33.3231 34.838 33.6926 34.2966 33.8846 33.6843C34.0766 33.072 34.0825 32.4166 33.9015 31.8009C33.7206 31.1853 33.3609 30.6373 32.868 30.2264C32.2107 29.6783 31.3633 29.4125 30.5107 29.4871C29.6581 29.5617 28.8697 29.9706 28.3175 30.6245ZM31.9039 31.3755C32.1694 31.5957 32.3635 31.8899 32.4615 32.2207C32.5594 32.5515 32.5568 32.9039 32.454 33.2332C32.3512 33.5625 32.1529 33.8539 31.8841 34.0702C31.6154 34.2865 31.2884 34.4181 30.9447 34.4481C30.601 34.4782 30.2562 34.4054 29.954 34.2391C29.6517 34.0727 29.4058 33.8202 29.2474 33.5138C29.089 33.2073 29.0252 32.8607 29.0642 32.5179C29.1033 32.1751 29.2433 31.8517 29.4666 31.5887C29.763 31.2395 30.1851 31.0213 30.6414 30.9814C31.0977 30.9415 31.5513 31.0831 31.9039 31.3755Z" fill="black"/>
<path d="M12.5551 34.3033C12.5647 34.4029 12.5949 34.4993 12.6438 34.5866C12.6855 34.6737 12.7455 34.7508 12.8197 34.8125C12.9722 34.9402 13.1691 35.0021 13.3671 34.9847C13.4682 34.9749 13.5668 34.947 13.6581 34.9024C13.7286 34.8405 13.7893 34.7682 13.838 34.6879C13.9114 34.6241 13.9743 34.5491 14.0244 34.4658C14.0664 34.3633 14.0835 34.2524 14.0742 34.142C14.0669 34.0435 14.0399 33.9474 13.9948 33.8595C13.9498 33.7716 13.8876 33.6936 13.8119 33.6301C13.7362 33.5666 13.6486 33.5189 13.5542 33.4898C13.4598 33.4607 13.3605 33.4508 13.2622 33.4607C13.1651 33.4672 13.0707 33.4949 12.9854 33.5417C12.896 33.5861 12.8169 33.6486 12.753 33.7253C12.6916 33.7996 12.646 33.8857 12.619 33.9783C12.5758 34.0812 12.5541 34.1918 12.5551 34.3033Z" fill="black"/>
<path d="M17.3177 48.0118C17.3349 48.2099 17.4301 48.3931 17.5823 48.521C17.6587 48.5836 17.7445 48.6336 17.8366 48.6691C17.932 48.695 18.0314 48.7031 18.1297 48.6932C18.3278 48.676 18.511 48.5808 18.6389 48.4286C18.7647 48.2751 18.8264 48.079 18.8111 47.8812C18.8015 47.7847 18.774 47.6908 18.7301 47.6043C18.6344 47.4327 18.479 47.3023 18.2934 47.2379C18.1992 47.204 18.0988 47.1909 17.999 47.1996C17.8993 47.2083 17.8026 47.2387 17.7158 47.2885C17.6287 47.3302 17.5516 47.3902 17.4899 47.4644C17.4255 47.5406 17.3776 47.6294 17.3494 47.7251C17.3211 47.8179 17.3104 47.9151 17.3177 48.0118Z" fill="black"/>
<path d="M6.60737 53.2929C7.25772 53.9794 7.94723 54.6277 8.67243 55.2345C13.2437 59.0944 19.0886 61.1136 25.0676 60.8982C29.2495 60.7669 33.3269 59.5594 36.9059 57.3923C40.4849 55.2252 43.4446 52.1718 45.499 48.5269C47.5535 44.8821 48.6333 40.7691 48.6341 36.5851C48.6349 32.4011 47.5568 28.2877 45.5038 24.642C45.2625 24.2086 45.159 23.712 45.2071 23.2183C45.2552 22.7246 45.4527 22.2572 45.7731 21.8786C46.0339 21.5391 46.381 21.2758 46.7782 21.1163L47.8584 22.0227C48.4525 22.5273 49.2096 22.7993 49.989 22.7882C50.7685 22.777 51.5174 22.4835 52.0969 21.962C52.6763 21.4406 53.0469 20.7266 53.1399 19.9526C53.2329 19.1787 53.042 18.3972 52.6026 17.7534L56.9407 14.279C57.0255 14.2082 57.094 14.1199 57.1416 14.0202C57.1893 13.9205 57.2149 13.8117 57.2167 13.7013C57.2213 13.5896 57.1998 13.4783 57.1539 13.3764C57.108 13.2745 57.039 13.1846 56.9524 13.1139L41.7387 0.348183C41.6533 0.276455 41.5528 0.224958 41.4447 0.197542C41.3366 0.170125 41.2237 0.167501 41.1145 0.189861C41.0058 0.209983 40.9031 0.254507 40.8142 0.320077C40.7253 0.385647 40.6524 0.47055 40.601 0.568388L37.9328 5.44397C37.2232 5.12343 36.4215 5.07087 35.6761 5.29604C34.9307 5.52121 34.2922 6.00884 33.8787 6.66864C33.4653 7.32845 33.3049 8.11573 33.4273 8.88469C33.5497 9.65366 33.9466 10.3522 34.5445 10.851L35.6246 11.7574C35.5549 12.1702 35.3783 12.5576 35.1125 12.8811C34.7877 13.2634 34.3533 13.5367 33.8682 13.6642C33.383 13.7917 32.8703 13.7672 32.3995 13.594C27.2522 11.7873 21.6471 11.7622 16.4838 13.5227C11.3205 15.2831 6.89822 18.7271 3.92666 23.3019C0.955087 27.8767 -0.393503 33.3171 0.0972857 38.7502C0.588074 44.1833 2.88979 49.294 6.63308 53.2622L6.60737 53.2929ZM55.2501 13.6959L51.4565 16.6611L39.1462 6.33155L41.4613 2.12569L55.2501 13.6959ZM31.9106 15.0635C32.6681 15.3402 33.4925 15.3771 34.2717 15.1692C35.051 14.9614 35.7474 14.5188 36.2665 13.9016C36.5257 13.5905 36.7323 13.2391 36.8782 12.8615L39.3066 14.8991C39.459 15.0269 39.6559 15.089 39.854 15.0717C40.0522 15.0544 40.2354 14.959 40.3632 14.8066C40.4911 14.6543 40.5532 14.4573 40.5358 14.2592C40.5185 14.061 40.4231 13.8779 40.2708 13.75L35.483 9.7326C35.1315 9.43767 34.9116 9.0152 34.8716 8.55812C34.8316 8.10104 34.9748 7.6468 35.2698 7.29532C35.5647 6.94384 35.9872 6.72391 36.4442 6.68392C36.9013 6.64394 37.3556 6.78716 37.707 7.08209L51.0209 18.2537C51.1949 18.3998 51.3385 18.5786 51.4434 18.7802C51.5483 18.9817 51.6125 19.2019 51.6323 19.4282C51.6521 19.6545 51.6271 19.8825 51.5588 20.0992C51.4905 20.3159 51.3802 20.517 51.2341 20.691C51.0881 20.865 50.9092 21.0086 50.7077 21.1135C50.5062 21.2184 50.286 21.2826 50.0596 21.3024C49.8333 21.3222 49.6053 21.2972 49.3886 21.2289C49.172 21.1606 48.9709 21.0503 48.7968 20.9042L43.0898 16.1155C42.9374 15.9876 42.7405 15.9255 42.5424 15.9429C42.3442 15.9602 42.161 16.0555 42.0332 16.2079C41.9053 16.3603 41.8432 16.5572 41.8606 16.7554C41.8779 16.9535 41.9733 17.1367 42.1256 17.2645L45.5039 20.0992C45.1623 20.3149 44.8553 20.5811 44.5934 20.8887C44.0753 21.4995 43.7568 22.2543 43.6806 23.0515C43.6044 23.8488 43.7743 24.6503 44.1673 25.3481C46.7922 30.0085 47.6982 35.4424 46.7273 40.7024C45.7564 45.9624 42.9702 50.7148 38.8545 54.1311C34.7388 57.5474 29.5547 59.4108 24.2058 59.3966C18.857 59.3823 13.6829 57.4913 9.58542 54.0531C5.48798 50.615 2.72718 45.8478 1.78433 40.5827C0.841487 35.3176 1.77641 29.8886 4.42611 25.2422C7.07581 20.5958 11.2722 17.0267 16.2837 15.1572C21.2952 13.2877 26.8038 13.2363 31.8493 15.0121L31.9106 15.0635Z" fill="black"/>
</svg>
